<?xml version="1.0" standalone="no"?><!DOCTYPE svg PUBLIC "-//W3C//DTD SVG 1.1//EN"
        "http://www.w3.org/Graphics/SVG/1.1/DTD/svg11.dtd">
<svg t="1582940036129" class="movie" viewBox="0 0 1024 1024" version="1.1" xmlns="http://www.w3.org/2000/svg" p-id="1035"
     xmlns:xlink="http://www.w3.org/1999/xlink" width="200" height="200">
    <defs>
        <style type="text/css"></style>
    </defs>
    <path d="M517.09860125 420.8381825a110.39262 110.39262 0 1 0-110.39262-110.39262094 110.39262 110.39262 0 0 0 110.39262 110.39262094z m0-148.79005406a38.39743312 38.39743312 0 1 1-38.39743312 38.39743312 38.39743312 38.39743312 0 0 1 38.39743312-38.39743312zM627.49122125 708.81893094a110.39262 110.39262 0 1 0-110.39262 110.39262 110.39262 110.39262 0 0 0 110.39262-110.39262z m-148.79005313 0a38.39743312 38.39743312 0 1 1 38.39743313 38.39743312 38.39743312 38.39743312 0 0 1-38.39743313-38.39743312zM716.28528594 620.02486625a110.39262 110.39262 0 1 0-110.39262094-110.39262 110.39262 110.39262 0 0 0 110.39262094 110.39262z m0-148.79005313a38.39743312 38.39743312 0 1 1-38.39743313 38.39743313 38.39743312 38.39743312 0 0 1 38.39743313-38.39743313zM317.91191656 399.23962625a110.39262 110.39262 0 1 0 110.39262094 110.39262 110.39262 110.39262 0 0 0-110.39262094-110.39262z m0 148.79005313a38.39743312 38.39743312 0 1 1 38.39743313-38.39743313 38.39743312 38.39743312 0 0 1-38.39743313 38.39743313z"
          p-id="1036"></path>
    <path d="M932.27084656 920.00481312h-167.41280812a479.96791406 479.96791406 0 1 0-255.77490094 71.99518688h423.18770906a35.99759344 35.99759344 0 0 0 0-71.99518688zM104.32619469 512.03208594a407.97272719 407.97272719 0 1 1 407.97272718 407.97272718 408.45269531 408.45269531 0 0 1-407.97272718-407.97272718z"
          p-id="1037"></path>
</svg>